<svg xmlns="http://www.w3.org/2000/svg" viewBox="0 0 141.05 38.73" xml:space="preserve">
  <path d="M62.3 29.85h9.81v-1.98h-2.85V20.7h4.32c4.38 0 6.84-2.28 6.84-6.06 0-3.72-2.19-5.73-6.57-5.73H62.3v1.98h2.1v16.98h-2.1v1.98zm6.96-18.78h2.97c2.04 0 3.24.99 3.24 2.97v1.53c0 1.98-1.2 2.97-3.24 2.97h-2.97v-7.47zm20.31 19.14c2.96.15 5.67-1.65 6.66-4.44l-1.65-.99c-.66 1.61-2.28 2.63-4.02 2.52-2.31 0-3.84-1.38-3.84-4.05v-1.2h9.87v-1.02c0-4.44-2.82-7.26-7.29-7.26s-7.41 3.12-7.41 8.19c0 4.8 2.76 8.25 7.68 8.25zm-2.85-10.47c0-2.88.99-3.9 2.58-3.9s2.58 1.02 2.58 3.9v.42h-5.16v-.42zm17.22 10.41c1.52.05 3.04-.15 4.5-.57v-1.77h-3.45V16.23h3.45v-2.1h-3.45V9.78h-2.25l-1.26 2.61c-.54 1.14-1.02 1.74-2.34 1.74h-.81v2.1h2.1V27c0 2.07 1.11 3.15 3.51 3.15zm12.9.06c3.63 0 6.09-1.8 6.09-5.1 0-3.03-1.74-4.26-5.13-5.13l-1.29-.33c-1.65-.42-2.16-.99-2.16-2.04s.78-1.65 2.28-1.65c2.1 0 3 .78 3 2.31v.54h2.94v-4.68h-2.94v1.59h-.12c-.3-.99-1.41-1.95-3.51-1.95-3.39 0-5.67 1.77-5.67 4.92 0 2.76 1.65 4.26 5.1 5.22l1.41.39c1.47.42 2.07.9 2.07 1.89 0 1.23-.84 1.83-2.76 1.83-2.13 0-3.06-.81-3.06-2.37v-.48h-2.94v4.68h2.94v-1.62h.12c.3.99 1.44 1.98 3.63 1.98zm11.07 6c3.21 0 4.53-2.55 5.43-4.74l6.3-15.36h1.41v-1.98h-5.52v1.98h1.68l-3.18 9.09h-.18l-3.15-9.09h1.68v-1.98h-7.89v1.98h1.44l5.7 14.49-.3.78c-.78 2.07-1.65 3.24-2.7 3.24-.11.01-.22 0-.33-.03l-.06-.18c.26-.38.39-.83.39-1.29-.02-1.24-1.05-2.23-2.29-2.2-1.24.02-2.23 1.05-2.21 2.3 0 1.61 1.38 2.99 3.78 2.99z" fill="#17383e"/>
  <path d="M22.08 38.732c-6.25 0-18.1-13.36-20.65-19.6-6.84-16.7 12.7-24.69 20.65-14.83 7.95-9.86 27.49-1.87 20.65 14.83-2.56 6.23-14.41 19.6-20.65 19.6z" fill="#d27c61"/>
  <path d="M22.07 28.332c-.66.6-1.52.92-2.42.92-2 0-3.62-1.62-3.62-3.62 0-1.54.97-2.91 2.42-3.42 0-.07-.01-.14-.01-.2 0-2 1.62-3.62 3.62-3.62s3.62 1.62 3.62 3.62c0 .07 0 .13-.01.2 1.45.51 2.42 1.88 2.42 3.42 0 2-1.62 3.62-3.62 3.62-.87.01-1.73-.32-2.4-.92zm6.46-6.53c-1.21-.8-1.55-2.42-.78-3.64.53-1.34 2.04-2.02 3.4-1.51 1.21.8 1.55 2.42.78 3.64-.45.99-1.42 1.66-2.51 1.73-.3 0-.61-.08-.89-.22zm-16.32-1.51c-.77-1.22-.43-2.84.78-3.64 1.36-.5 2.87.17 3.4 1.51.77 1.22.43 2.84-.78 3.64-.28.14-.59.21-.9.21-1.09-.07-2.05-.73-2.5-1.72zm12.58-3.25c-1.5-.4-2.3-2.3-1.79-4.23s2.16-3.17 3.66-2.77 2.3 2.3 1.79 4.23c-.29 1.52-1.54 2.68-3.08 2.85-.19 0-.38-.03-.58-.08zm-9.1-2.77c-.52-1.93.28-3.83 1.79-4.23s3.14.84 3.66 2.77-.28 3.83-1.79 4.23c-.19.05-.38.08-.58.08-1.54-.17-2.79-1.33-3.08-2.85z" fill="#fff"/>
</svg>
